#!OML:ASF F:\VICON\USERDATA\INSTALL\rory3\rory3.ASF
:FULLY-SPECIFIED
:DEGREES
43
root -7.05899234427701 17.72494471137193 4.840450927796577 -4.628796259217808 30.500080562163593 -16.5470959442886
lfemur -1.2232553136437687 21.271098731085047 8.966527218327887
ltibia 36.98418220969144
lfoot 8.110182048541429 7.410775865423016
ltoes -30.115430567045184
rfemur -29.088268847310292 15.284928411487778 25.78608618980445
rtibia 32.377354476552895
rfoot -3.2531279413595655 31.88845878778978
rtoes 35.49226814646194
lowerback 5.3982578257094955 -8.783674928294714 -17.022882337354876
upperback -1.9250709291257864 -12.706793912417988 -4.3610258611850234
thorax -1.9108001017723766 -6.105601308439079 4.072527781971911
lowerneck -4.427589714230297 20.828533380448462 -0.1846844255788465
upperneck 7.724368223442058 29.993531143125875 -12.219676399504028
head 5.893984912520324 13.82121726660919 -1.0244227246763244
lclavicle -6.827264220476175e-15 -5.110194132729858e-15
lhumerus 109.80505256295207 -33.11856902617447 45.451446350800865
lradius 35.70600549404824
lwrist 3.9004201850430533
lhand -20.50726106995178 -2.241076901369105
lfingers 7.125020000000003
lthumb -174.15025345225865 309.9877176525736
rclavicle -6.827264220476175e-15 -5.110194132729858e-15
rhumerus 38.49864958192272 -26.19050613783017 -49.1147219867226
rradius 101.65945741890576
rwrist 0.3528849007242272
rhand -62.94308383143934 36.91127275961148
rfingers 7.125020000000003
rthumb -34.93301764516316 9.493467089309103
44
root -7.071580791678833 17.7343382196605 4.729089500254819 -3.3023597682443437 31.589630143310522 -15.56148390879332
lfemur -2.5892461536471068 22.225288802419588 8.673662639582503
ltibia 37.09310359742521
lfoot 6.98876307997323 7.251367411946681
ltoes -29.374288912848815
rfemur -29.605035419488342 14.613584981789888 25.727582138043353
rtibia 32.034720493655236
rfoot -3.3578451343403675 31.17458669879703
rtoes 33.54369521768517
lowerback 5.8618493809303525 -8.722437382101585 -16.92831777731774
upperback -1.709987977767622 -12.700010247887038 -4.171891376018266
thorax -1.8669870785747533 -6.13658833362518 4.277879672912533
lowerneck -4.830530974941161 20.824525953764805 -0.35567963923889206
upperneck 8.029870565429963 30.040932344772635 -12.033781036553155
head 6.000877473163589 13.819131643349039 -0.8997663480036904
lclavicle -6.816641779711345e-15 -5.0698868384930254e-15
lhumerus 109.05390185602836 -33.510489568703456 45.67186872929079
lradius 35.12348148000504
lwrist 4.457127611698635
lhand -18.716543817473948 -1.6295396757648355
lfingers 7.125020000000003
lthumb -172.4263561217322 313.19947570257676
rclavicle -6.816641779711345e-15 -5.0698868384930254e-15
rhumerus 38.765003963475934 -25.543884014512756 -50.74096840685675
rradius 100.7011555607026
rwrist -1.6433643736977679
rhand -62.65829410566012 35.623535042017934
rfingers 7.125020000000003
rthumb -34.66161008933845 8.19178463656106
45
root -7.091871202119622 17.74203947080897 4.59020733594299 -1.0593436380945178 33.27451832954456 -13.769886996293152
lfemur -4.43381272784152 23.24811094018777 8.071408696399194
ltibia 37.03166346361612
lfoot 5.81701929449336 6.981273845509396
ltoes -28.038721558401765
rfemur -30.340672649277977 13.79694798630311 25.44886819348076
rtibia 31.753609133399827
rfoot -3.6948148101363394 30.01063470129163
rtoes 31.27178679724452
lowerback 6.406262571731916 -8.691633566093985 -16.757438146570948
upperback -1.396474430880148 -12.658718074198097 -3.9571860795943445
thorax -1.817164264955957 -6.132513554652643 4.517202682224777
lowerneck -4.952486685326307 20.67676093516607 -0.1580801187697897
upperneck 8.388877806335291 29.89817059300051 -11.995732219996967
head 6.1376625700733385 13.733895828399557 -0.8801148236915894
lclavicle -6.897554154188713e-15 -5.1356897228776586e-15
lhumerus 108.73410232978716 -34.3325364894625 45.711531258608034
lradius 34.08950517563106
lwrist 4.7748082844890725
lhand -16.90548619987701 -1.0425691993046726
lfingers 7.125020000000003
lthumb -170.6827931819266 316.2246695381674
rclavicle -6.897554154188713e-15 -5.1356897228776586e-15
rhumerus 38.73308107964334 -25.109655464870855 -52.608530995960365
rradius 99.34926364398079
rwrist -3.649875568434771
rhand -62.530651070777154 34.13804770747392
rfingers 7.125020000000003
rthumb -34.542274439824155 6.696572481122185
46
root -7.109166896201214 17.75216791509309 4.444344590055129 0.9973473766424377 35.699109645439925 -12.209240795775813
lfemur -6.563435050275981 24.232196445663586 7.453147086277495
ltibia 37.17049899921621
lfoot 4.280714343062451 6.769414387849732
ltoes -26.41304254174104
rfemur -31.019790994490688 12.773773593795987 25.344310170155335
rtibia 31.506284698298042
rfoot -4.133641759301657 28.54391241149687
rtoes 27.66662922951169
lowerback 6.96370879052684 -8.638787517149062 -16.42155755000793
upperback -1.0516248240068982 -12.617776632410342 -3.561067651222893
thorax -1.7171690832233333 -6.1517456915976165 4.846648342206052
lowerneck -5.395313002713594 20.60047535903647 -0.165937851942225
upperneck 8.971348501517909 29.842210842920796 -11.849508321412898
head 6.344710278183722 13.665371805704899 -0.7913081053058779
lclavicle -6.657589954072351e-15 -4.907108403806151e-15
lhumerus 107.65880973969439 -34.811428127147025 46.22503847932785
lradius 33.36223189349195
lwrist 5.086900171410328
lhand -15.004286254595305 -0.23765963036911586
lfingers 7.125020000000003
lthumb -168.85307025423947 314.80552152215927
rclavicle -6.657589954072351e-15 -4.90710840380615e-15
rhumerus 39.10258943985088 -24.295780634751637 -54.50648598760825
rradius 98.23815873138008
rwrist -5.656731696910411
rhand -62.29733368424753 32.69349372630167
rfingers 7.125020000000003
rthumb -34.31987740916061 5.23879787116133
47
root -7.145586472518324 17.76052594543779 4.250852423784686 3.652898934084476 37.981196087775714 -10.072067818536098
lfemur -9.156014795984483 25.018482529052598 6.381552669273672
ltibia 37.04597055073876
lfoot 3.1489451503180064 6.278280175539749
ltoes -24.65923536106769
rfemur -32.08998737898243 11.679023569507565 24.89206879405023
rtibia 31.127280798794484
rfoot -4.322995377150042 26.66185463758766
rtoes 24.535111652312978
lowerback 7.328218729659773 -8.652427814893516 -16.244402545455543
upperback -0.7560815077930685 -12.658166410261442 -3.256025198103429
thorax -1.579191231779228 -6.218593743173929 5.091372214895161
lowerneck -5.778959268420616 20.17790052117449 0.0927436832644758
upperneck 9.449505700965954 29.31823020657744 -11.843650235332571
head 6.559223417632979 13.385443803226883 -0.7830061655901199
lclavicle -7.418728522180779e-15 -5.429388696872262e-15
lhumerus 106.70809053402208 -36.19846832130962 46.1227655021611
lradius 32.216554137634695
lwrist 5.2112271642726
lhand -13.321222703750545 0.394004192959855
lfingers 7.125020000000003
lthumb -167.23232937101125 317.2840789847496
rclavicle -7.418728522180779e-15 -5.429388696872262e-15
rhumerus 38.632452329564245 -23.96756354450612 -56.74932242545157
rradius 96.79736827880015
rwrist -8.020069862126066
rhand -62.24848632385987 30.654236753630776
rfingers 7.125020000000003
rthumb -34.276896620848625 3.188684478779402
48
root -7.168600412865251 17.769567292828203 4.0577483209964225 6.550261324130318 41.49985473727026 -7.753103175484725
lfemur -12.024672093457985 25.77290933095152 5.283736201855001
ltibia 37.159067703266345
lfoot 1.7954524775919634 5.884099417687338
ltoes -22.64861864182112
rfemur -32.87736523537532 10.401747325074254 24.4581210530467
rtibia 30.84110355658133
rfoot -4.612715944872779 24.447988027850748
rtoes 20.423907395956803
lowerback 7.820014057895908 -8.571567207244389 -15.757384347878208
upperback -0.34802076410597715 -12.527173060175373 -2.785037593543568
thorax -1.409304770002117 -6.20284603145509 5.434097493650625
lowerneck -6.20680654387683 19.873813652891318 0.37821135433520103
upperneck 10.092985451741523 28.970932114295042 -11.871723788382393
head 6.82677312617569 13.17667269133888 -0.7915903407467346
lclavicle -7.228345970091788e-15 -5.27066460134273e-15
lhumerus 105.45634803133538 -37.08551121445061 46.8042362346973
lradius 31.21549252316334
lwrist 5.494887748699057
lhand -11.662736490409483 1.259489255825546
lfingers 7.125020000000003
lthumb -165.63613376925727 311.6471637626132
rclavicle -7.228345970091786e-15 -5.27066460134273e-15
rhumerus 38.65961307133694 -23.255817455580917 -59.00866735748252
rradius 95.30816068497177
rwrist -9.969647773853367
rhand -62.07847726729011 29.135437725771897
rfingers 7.125020000000003
rthumb -34.116254110504144 1.6450875789625243
49
root -7.215000231289443 17.778954194084584 3.841070484305946 8.353482434588528 45.32933395284043 -6.630470486564462
lfemur -15.42353498001592 26.216557305466335 3.8570179625507297
ltibia 37.17154515990824
lfoot 0.6826682052297244 5.1847537431543245
ltoes -20.529552178899166
rfemur -33.9690934270643 9.087741429569308 23.818476300510227
rtibia 30.520559064693078
rfoot -4.873441691179364 21.47641046931669
rtoes 15.945491575361148
lowerback 8.102718757432836 -8.612548537706463 -15.234569411423925
upperback 0.0712672121540443 -12.57582305067996 -2.2215780238863534
thorax -1.1001872828479455 -6.297835019631511 5.761323730885105
lowerneck -6.9099014724403265 19.322969488511493 0.737132057265848
upperneck 10.824282912400374 28.293021801983794 -11.88903244780943
head 7.156786572546064 12.795626755691524 -0.822780669880867
lclavicle -7.655630282342665e-15 -5.523423313918171e-15
lhumerus 103.98356839841935 -38.55301914556138 47.42529244681484
lradius 30.096326487960535
lwrist 5.319307208146334
lhand -10.16243358956222 2.1574729084913997
lfingers 7.125020000000003
lthumb -164.191499227428 314.74356180417305
rclavicle -7.655630282342665e-15 -5.523423313918171e-15
rhumerus 38.19925696280283 -22.971345815388815 -61.2410182679475
rradius 94.10825604128128
rwrist -12.20738161769664
rhand -62.07564114437998 27.232006128343315
rfingers 7.125020000000003
rthumb -34.116037661771145 -0.2515179309012545
50
root -7.243455318528646 17.786966520096303 3.628050842683556 10.540946776368187 50.107335275937864 -5.1104372185924944
lfemur -18.882435153363783 26.499977400544644 2.282465620984466
ltibia 37.388616973905314
lfoot 0.027721144487198757 4.593533599193709
ltoes -18.343391293446686
rfemur -34.625184026126874 7.726750699195603 23.039021572694473
rtibia 30.373747075438427
rfoot -4.69569017299488 18.540520814538972
rtoes 11.466076657675647
lowerback 8.37083135235391 -8.491430327902147 -14.401460840833732
upperback 0.6120647743734695 -12.3325151119367 -1.579431572297098
thorax -0.7033791499152544 -6.23973733547439 6.126989814665144
lowerneck -7.448653244779249 18.773027687535045 1.3198164270852628
upperneck 11.733332985117826 27.644608923226198 -12.025078376575873
head 7.568123241440114 12.430870821527567 -0.9382256190061589
lclavicle -7.059441442627799e-15 -5.100924300398623e-15
lhumerus 102.66647275871807 -39.87498216943271 48.335947934886484
lradius 29.08967384007567
lwrist 5.78923725527061
lhand -8.951323648285076 3.3650925054770333
lfingers 7.125020000000003
lthumb -163.0250103718007 316.42268407656354
rclavicle -7.059441442627798e-15 -5.100924300398623e-15
rhumerus 37.911026220782574 -22.10971601665117 -63.36003252837468
rradius 92.83119759058636
rwrist -14.071362926373945
rhand -61.82074106034125 25.610501015342585
rfingers 7.125020000000003
rthumb -33.87418412628049 -1.8744316873931322
